<svg width="221" height="221" viewBox="0 0 221 221" fill="none" xmlns="http://www.w3.org/2000/svg">
<path d="M220.574 0.677734H0.574219V220.678H220.574V0.677734Z" fill="white"/>
<g style="mix-blend-mode:multiply">
<path d="M110.468 110.678C110.468 164.926 154.446 208.904 208.694 208.904V12.4513C154.446 12.4513 110.468 56.43 110.468 110.678Z" fill="#F9EA7A"/>
</g>
<g style="mix-blend-mode:multiply">
<path d="M111.44 110.678C111.44 56.43 67.4614 12.4513 13.2136 12.4513V208.897C67.4614 208.897 111.44 164.918 111.44 110.671V110.678Z" fill="#EEECEB"/>
</g>
<g style="mix-blend-mode:multiply">
<path d="M111.44 186.946C153.562 186.946 187.709 152.8 187.709 110.677C187.709 68.5551 153.562 34.4083 111.44 34.4083C69.3177 34.4083 35.1709 68.5551 35.1709 110.677C35.1709 152.8 69.3177 186.946 111.44 186.946Z" fill="#E36819"/>
</g>
<path d="M111.44 136.843C125.891 136.843 137.606 125.129 137.606 110.678C137.606 96.2267 125.891 84.5118 111.44 84.5118C96.989 84.5118 85.2742 96.2267 85.2742 110.678C85.2742 125.129 96.989 136.843 111.44 136.843Z" fill="white"/>
</svg>
