<svg width="234" height="235" viewBox="0 0 234 235" fill="none" xmlns="http://www.w3.org/2000/svg">
<g filter="url(#filter0_d_2_183)">
<path d="M227 4.67773H7V224.678H227V4.67773Z" fill="white"/>
<mask id="mask0_2_183" style="mask-type:luminance" maskUnits="userSpaceOnUse" x="7" y="4" width="220" height="221">
<path d="M227 4.67773H7V224.678H227V4.67773Z" fill="white"/>
</mask>
<g mask="url(#mask0_2_183)">
<path d="M117.362 115.997L41.888 67.2852L117.362 18.5801L192.829 67.2852L117.362 115.997Z" fill="#F5D28A"/>
<g style="mix-blend-mode:multiply">
<path d="M117.362 115.997L41.8879 67.2852L41.9092 160.203L117.383 208.915L117.362 115.997Z" fill="#F9EA7A"/>
</g>
<g style="mix-blend-mode:multiply">
<path d="M81.9349 151.424L6.46069 102.719L6.48198 195.637L81.9491 244.342L81.9349 151.424Z" fill="#F9EA7A"/>
</g>
<path d="M117.362 115.997L192.829 67.2852L192.85 160.203L117.383 208.915L117.362 115.997Z" fill="#E36819"/>
<g style="mix-blend-mode:multiply">
<path d="M152.42 151.055L227.894 102.35L227.916 195.268L152.441 243.973L152.42 151.055Z" fill="#E36819"/>
</g>
</g>
</g>
<defs>
<filter id="filter0_d_2_183" x="0" y="0.677734" width="234" height="234" filterUnits="userSpaceOnUse" color-interpolation-filters="sRGB">
<feFlood flood-opacity="0" result="BackgroundImageFix"/>
<feColorMatrix in="SourceAlpha" type="matrix" values="0 0 0 0 0 0 0 0 0 0 0 0 0 0 0 0 0 0 127 0" result="hardAlpha"/>
<feOffset dy="3"/>
<feGaussianBlur stdDeviation="3.5"/>
<feComposite in2="hardAlpha" operator="out"/>
<feColorMatrix type="matrix" values="0 0 0 0 0 0 0 0 0 0 0 0 0 0 0 0 0 0 0.1 0"/>
<feBlend mode="normal" in2="BackgroundImageFix" result="effect1_dropShadow_2_183"/>
<feBlend mode="normal" in="SourceGraphic" in2="effect1_dropShadow_2_183" result="shape"/>
</filter>
</defs>
</svg>
