<svg width="220" height="220" viewBox="0 0 234 235" fill="none" xmlns="http://www.w3.org/2000/svg">
<g filter="url(#filter0_d_2_205)">
<path d="M227 4.42188H7V224.422H227V4.42188Z" fill="white"/>
<mask id="mask0_2_205" style="mask-type:luminance" maskUnits="userSpaceOnUse" x="7" y="4" width="220" height="221">
<path d="M227 4.42188H7V224.422H227V4.42188Z" fill="white"/>
</mask>
<g mask="url(#mask0_2_205)">
<g style="mix-blend-mode:multiply">
<path d="M26.3956 177.753C61.3727 177.753 89.7272 149.399 89.7272 114.421C89.7272 79.4444 61.3727 51.0898 26.3956 51.0898C-8.58151 51.0898 -36.936 79.4444 -36.936 114.421C-36.936 149.399 -8.58151 177.753 26.3956 177.753Z" fill="#E36819"/>
</g>
<g style="mix-blend-mode:multiply">
<path d="M117.852 189.478C159.304 189.478 192.907 155.875 192.907 114.423C192.907 72.9707 159.304 39.3672 117.852 39.3672C76.3996 39.3672 42.7961 72.9707 42.7961 114.423C42.7961 155.875 76.3996 189.478 117.852 189.478Z" fill="#F9EA7A"/>
</g>
<g style="mix-blend-mode:multiply">
<path d="M117.852 177.753C152.829 177.753 181.183 149.399 181.183 114.421C181.183 79.4444 152.829 51.0898 117.852 51.0898C82.8745 51.0898 54.52 79.4444 54.52 114.421C54.52 149.399 82.8745 177.753 117.852 177.753Z" fill="#F9EA7A"/>
</g>
<g style="mix-blend-mode:multiply">
<path d="M207.612 177.753C242.589 177.753 270.943 149.399 270.943 114.421C270.943 79.4444 242.589 51.0898 207.612 51.0898C172.635 51.0898 144.28 79.4444 144.28 114.421C144.28 149.399 172.635 177.753 207.612 177.753Z" fill="#EEECEB"/>
</g>
</g>
</g>
<defs>
<filter id="filter0_d_2_205" x="0" y="0.421875" width="234" height="234" filterUnits="userSpaceOnUse" color-interpolation-filters="sRGB">
<feFlood flood-opacity="0" result="BackgroundImageFix"/>
<feColorMatrix in="SourceAlpha" type="matrix" values="0 0 0 0 0 0 0 0 0 0 0 0 0 0 0 0 0 0 127 0" result="hardAlpha"/>
<feOffset dy="3"/>
<feGaussianBlur stdDeviation="3.5"/>
<feComposite in2="hardAlpha" operator="out"/>
<feColorMatrix type="matrix" values="0 0 0 0 0 0 0 0 0 0 0 0 0 0 0 0 0 0 0.1 0"/>
<feBlend mode="normal" in2="BackgroundImageFix" result="effect1_dropShadow_2_205"/>
<feBlend mode="normal" in="SourceGraphic" in2="effect1_dropShadow_2_205" result="shape"/>
</filter>
</defs>
</svg>
