<svg width="234" height="235" viewBox="0 0 234 235" fill="none" xmlns="http://www.w3.org/2000/svg">
<g filter="url(#filter0_d_2_227)">
<path d="M227 4.42188H7V224.422H227V4.42188Z" fill="white"/>
<path d="M27.1831 114.422C27.1831 164.61 67.8689 205.296 118.057 205.296V114.422H27.1831Z" fill="#EEECEB"/>
<path d="M118.057 23.5469C67.8689 23.5469 27.1831 64.2327 27.1831 114.421H118.057V23.5469Z" fill="#F5D28A"/>
<path d="M118.057 205.296C168.246 205.296 208.932 164.61 208.932 114.422H118.057V205.296Z" fill="#F5D28A"/>
<g style="mix-blend-mode:multiply">
<path d="M118.057 23.5469V114.421H208.932C208.932 64.2327 168.246 23.5469 118.057 23.5469Z" fill="#E36819"/>
</g>
<path d="M118.057 49.4512C82.1761 49.4512 53.0864 78.5408 53.0864 114.422H118.057V49.4512Z" fill="#E36819"/>
<path d="M53.0935 114.422C53.0935 150.303 82.1832 179.393 118.064 179.393V114.422H53.0935Z" fill="#E36819"/>
<path d="M183.028 114.422H118.057V179.393C153.939 179.393 183.028 150.303 183.028 114.422Z" fill="#EEECEB"/>
<path d="M183.028 114.422C183.028 78.5408 153.939 49.4512 118.057 49.4512V114.422H183.028Z" fill="#F9EA7A"/>
</g>
<defs>
<filter id="filter0_d_2_227" x="0" y="0.421875" width="234" height="234" filterUnits="userSpaceOnUse" color-interpolation-filters="sRGB">
<feFlood flood-opacity="0" result="BackgroundImageFix"/>
<feColorMatrix in="SourceAlpha" type="matrix" values="0 0 0 0 0 0 0 0 0 0 0 0 0 0 0 0 0 0 127 0" result="hardAlpha"/>
<feOffset dy="3"/>
<feGaussianBlur stdDeviation="3.5"/>
<feComposite in2="hardAlpha" operator="out"/>
<feColorMatrix type="matrix" values="0 0 0 0 0 0 0 0 0 0 0 0 0 0 0 0 0 0 0.1 0"/>
<feBlend mode="normal" in2="BackgroundImageFix" result="effect1_dropShadow_2_227"/>
<feBlend mode="normal" in="SourceGraphic" in2="effect1_dropShadow_2_227" result="shape"/>
</filter>
</defs>
</svg>
