<?xml version="1.0" encoding="utf-8"?>
<!-- Generator: Adobe Illustrator 26.2.1, SVG Export Plug-In . SVG Version: 6.00 Build 0)  -->
<svg version="1.1" id="레이어_1" xmlns="http://www.w3.org/2000/svg" xmlns:xlink="http://www.w3.org/1999/xlink" x="0px"
	 y="0px" viewBox="0 0 32 32" style="enable-background:new 0 0 32 32;" xml:space="preserve">
<style type="text/css">
	.st0{fill:#EB691B;}
	.st1{fill:#FFFFFF;}
	.st2{fill:none;}
	.st3{fill:#FCD991;}
</style>
<g>
	<path class="st0" d="M2.91,10.46c0,0-1.26,0.41-1.8,0.64l-1.03,5.35L1.84,16l-1.14,5.93c11-2.33,20.04,2.24,26.79-0.12
		c1.63-0.57,2.5-1.89,2.95-4.15l1.48-7.51C18.59,12.16,12.75,7.61,2.91,10.46z"/>
	<g>
		<path class="st1" d="M6.89,12.26v0.98c0,0.07,0.05,0.12,0.12,0.12h0.9c0.07,0,0.12,0.05,0.12,0.12v1.06
			c0,0.07-0.05,0.12-0.12,0.12h-0.9c-0.07,0-0.12,0.05-0.12,0.12v1.93c0,0.68,0.16,1.07,0.69,1.07c0.15,0,0.28-0.01,0.39-0.03
			c0.07-0.01,0.14,0.04,0.14,0.12l0.01,1.11c0,0.05-0.03,0.1-0.08,0.12c-0.24,0.07-0.62,0.12-1.06,0.12c-0.57,0-1.04-0.2-1.32-0.49
			c-0.32-0.34-0.49-0.88-0.49-1.68v-2.27c0-0.07-0.05-0.12-0.12-0.12H4.28c-0.07,0-0.12-0.05-0.12-0.12v-1.06
			c0-0.07,0.05-0.12,0.12-0.12h0.77c0.07,0,0.12-0.05,0.12-0.12v-0.98c0-0.07,0.05-0.12,0.12-0.12h1.49
			C6.84,12.14,6.89,12.2,6.89,12.26z"/>
		<path class="st1" d="M23.54,17.66c0-0.08,0.09-0.14,0.16-0.1c0.38,0.17,1.01,0.34,1.46,0.34c0.53,0,0.75-0.19,0.75-0.47
			s-0.17-0.43-0.83-0.65c-1.17-0.39-1.62-1.03-1.61-1.7c0-1.05,0.9-1.85,2.3-1.85c0.62,0,1.18,0.13,1.53,0.29
			c0.04,0.02,0.06,0.06,0.06,0.1l0,0.97c0,0.08-0.08,0.13-0.15,0.11c-0.34-0.12-0.97-0.26-1.39-0.26c-0.43,0-0.67,0.17-0.67,0.46
			c0,0.27,0.22,0.4,0.91,0.65c1.08,0.37,1.53,0.91,1.54,1.75c0,1.05-0.83,1.83-2.45,1.83c-0.71,0-1.15-0.15-1.56-0.36
			c-0.04-0.02-0.06-0.06-0.06-0.1L23.54,17.66z"/>
		<path class="st1" d="M11.5,17.85c-0.55-0.05-1.02-0.4-1.18-0.9c-0.03-0.09,0.04-0.17,0.13-0.17l3.5,0c0.07,0,0.14-0.06,0.13-0.14
			c-0.04-1.91-0.98-3.08-2.68-3.08c-1.38,0-2.68,1.13-2.68,2.79c0,1.72,1.4,2.79,2.79,2.79c1.45,0,2.17-0.8,2.48-1.51
			c0-0.01,0.01-0.01,0.01-0.02l0.03-0.09c0.03-0.09-0.04-0.18-0.13-0.18h-1.1c-0.04,0-0.08,0.02-0.1,0.05
			C12.42,17.71,11.95,17.89,11.5,17.85z M11.43,14.74c0.59,0,1.01,0.4,1.13,0.83c0.03,0.09-0.04,0.17-0.13,0.17h-1.96
			c-0.09,0-0.15-0.08-0.13-0.17C10.49,15.1,10.87,14.74,11.43,14.74z"/>
		<path class="st2" d="M20.19,15.11c-0.73,0-1.27,0.57-1.27,1.36c0,0.79,0.54,1.37,1.27,1.36c0.74,0,1.28-0.57,1.28-1.36
			C21.47,15.68,20.93,15.11,20.19,15.11z"/>
		<path class="st2" d="M20.19,15.11c-0.73,0-1.27,0.57-1.27,1.36c0,0.79,0.54,1.37,1.27,1.36c0.74,0,1.28-0.57,1.28-1.36
			C21.47,15.68,20.93,15.11,20.19,15.11z"/>
		<path class="st1" d="M16.29,12.13l-1.39,0.35c-0.13,0.04-0.17,0.11-0.16,0.24l0.21,2.58l0.07,1.28c0.01,0.15,0.08,0.2,0.23,0.2
			l0.99,0c0.15,0,0.2-0.06,0.2-0.21l0.04-1.28l0.12-2.93C16.62,12.17,16.48,12.08,16.29,12.13z"/>
		<path class="st1" d="M20.2,13.77c1.51,0,2.78,1.31,2.78,2.73c0,1.44-1.27,2.73-2.78,2.73c-1.51,0-2.79-1.3-2.79-2.73
			C17.42,15.06,18.7,13.77,20.2,13.77z M20.19,17.86c0.74,0,1.28-0.57,1.28-1.36c0-0.79-0.54-1.36-1.28-1.36
			c-0.73,0-1.27,0.57-1.27,1.36C18.92,17.29,19.47,17.87,20.19,17.86z"/>
		<path class="st1" d="M15.79,18.35c0.35,0,0.66,0.2,0.82,0.49c0.11-0.16,0.17-0.35,0.17-0.55c0-0.2-0.06-0.39-0.16-0.54
			c-0.18-0.27-0.48-0.44-0.82-0.44c-0.34,0-0.65,0.18-0.82,0.44c-0.1,0.16-0.16,0.34-0.16,0.54c0,0.2,0.06,0.39,0.17,0.55
			C15.12,18.55,15.43,18.35,15.79,18.35z"/>
		<path class="st3" d="M15.79,19.28c0.34,0,0.64-0.17,0.82-0.43c-0.16-0.29-0.46-0.49-0.82-0.49c-0.35,0-0.66,0.2-0.82,0.49
			C15.15,19.11,15.45,19.28,15.79,19.28z"/>
	</g>
</g>
</svg>
